<svg xmlns="http://www.w3.org/2000/svg" xmlns:xlink="http://www.w3.org/1999/xlink" width="794" zoomAndPan="magnify" viewBox="0 0 595.5 842.249979" height="1123" preserveAspectRatio="xMidYMid meet" version="1.0"><defs><clipPath id="32a72e4d03"><path d="M 0.015625 368 L 594.984375 368 L 594.984375 474 L 0.015625 474 Z M 0.015625 368 " clip-rule="nonzero"/></clipPath><clipPath id="bd90b62cbc"><path d="M 0.015625 2 L 253 2 L 253 104.867188 L 0.015625 104.867188 Z M 0.015625 2 " clip-rule="nonzero"/></clipPath><clipPath id="61abce4231"><path d="M 343 2 L 594.984375 2 L 594.984375 104.867188 L 343 104.867188 Z M 343 2 " clip-rule="nonzero"/></clipPath><clipPath id="7d40543a9f"><rect x="0" width="595" y="0" height="106"/></clipPath></defs><g clip-path="url(#32a72e4d03)"><g transform="matrix(1, 0, 0, 1, -0.000000000000000002, 368)"><g clip-path="url(#7d40543a9f)"><g clip-path="url(#bd90b62cbc)"><path fill="#000000" d="M 50.972656 2.621094 C 34.542969 4.011719 18.597656 10.734375 8.992188 20.34375 C 4.882812 24.453125 3.039062 27.273438 1.472656 31.699219 C 0.601562 34.242188 0.496094 34.9375 0.496094 39.359375 C 0.496094 43.503906 0.601562 44.617188 1.296875 46.847656 C 5.929688 61.542969 21.070312 72.234375 43.386719 76.585938 C 52.75 78.398438 56.824219 78.710938 72.035156 78.710938 C 87.003906 78.710938 91.042969 78.433594 104.582031 76.621094 C 114.015625 75.332031 123.171875 73.628906 140.265625 69.972656 C 162.300781 65.234375 169.890625 63.875 179.949219 62.832031 C 185.3125 62.238281 199.097656 62.238281 203.273438 62.796875 C 210.898438 63.839844 216.640625 65.027344 220.921875 66.488281 C 240.488281 73.070312 251.242188 83.273438 247.34375 91.597656 C 245.117188 96.472656 236.902344 100.511719 227.257812 101.558594 C 215.386719 102.84375 203.726562 97.902344 199.757812 89.855469 C 198.78125 87.835938 198.609375 87.105469 198.609375 84.980469 C 198.609375 82.890625 198.78125 82.125 199.722656 80.210938 C 200.734375 78.15625 202.996094 75.542969 205.363281 73.730469 C 206.824219 72.617188 210.617188 70.667969 212.953125 69.832031 C 214.136719 69.378906 215.039062 68.960938 214.96875 68.890625 C 214.867188 68.785156 213.125 68.4375 211.035156 68.089844 L 207.277344 67.429688 L 205.605469 68.367188 C 201.183594 70.773438 196.695312 75.855469 195.40625 79.929688 C 194.535156 82.648438 194.605469 86.511719 195.613281 89.089844 C 198.261719 96.019531 206.300781 101.558594 216.46875 103.472656 C 220.4375 104.203125 227.816406 104.203125 232.339844 103.4375 C 236.621094 102.742188 241.949219 100.964844 244.558594 99.398438 C 247.449219 97.65625 249.851562 95.113281 251.070312 92.539062 C 253.75 86.824219 251.417969 80.070312 244.628906 73.871094 C 241.460938 70.980469 234.671875 66.347656 231.15625 64.710938 C 224.613281 61.648438 223.117188 60.984375 220.332031 60.046875 C 215.839844 58.480469 209.886719 57.015625 204.492188 56.179688 C 200.246094 55.519531 198.226562 55.414062 189 55.378906 C 182.5625 55.378906 176.886719 55.554688 174.554688 55.832031 C 166.304688 56.808594 155.789062 58.445312 141.136719 61.089844 C 118.402344 65.199219 107.683594 66.765625 92.574219 68.160156 C 85.261719 68.855469 62.390625 68.71875 55.671875 67.984375 C 33.984375 65.546875 20.199219 60.011719 12.785156 50.710938 C 8.921875 45.835938 7.425781 41.519531 7.738281 35.878906 C 7.945312 31.59375 8.816406 28.945312 11.113281 25.5 C 20.339844 11.671875 43.140625 2.550781 64.027344 4.324219 C 76.941406 5.441406 87.421875 9.375 94.246094 15.679688 C 99.257812 20.308594 102.914062 27.589844 103.714844 34.519531 L 104.027344 37.269531 L 103.886719 33.789062 C 103.714844 28.808594 101.832031 23.757812 98.316406 18.8125 C 92.121094 10.070312 78.160156 3.871094 61.941406 2.621094 C 56.824219 2.234375 55.671875 2.234375 50.972656 2.621094 Z M 50.972656 2.621094 " fill-opacity="1" fill-rule="nonzero"/></g><g clip-path="url(#61abce4231)"><path fill="#000000" d="M 532.519531 2.621094 C 516.957031 3.90625 502.476562 10.523438 496.734375 18.988281 C 494.503906 22.261719 492.453125 26.824219 491.652344 30.164062 C 491.546875 30.617188 491.40625 32.394531 491.335938 34.136719 L 491.199219 37.269531 L 491.476562 34.625 C 492.417969 25.605469 498.125 16.617188 505.921875 11.917969 C 524.410156 0.667969 552.710938 1.75 572.273438 14.355469 C 579.480469 19.023438 584.632812 24.734375 586.546875 30.199219 C 587.625 33.230469 587.871094 38.59375 587.101562 41.625 C 584.980469 50.050781 577.601562 57.328125 566.53125 61.855469 C 559.53125 64.746094 550.828125 66.730469 539.550781 67.984375 C 532.832031 68.71875 509.960938 68.855469 502.652344 68.160156 C 487.542969 66.765625 476.820312 65.199219 454.089844 61.089844 C 439.398438 58.445312 428.886719 56.773438 420.671875 55.832031 C 414.578125 55.136719 396.929688 55.238281 391.777344 56.007812 C 386.207031 56.839844 381.125 58.027344 376.425781 59.523438 C 372.839844 60.671875 371.097656 61.4375 363.894531 64.78125 C 362.535156 65.445312 359.542969 67.21875 357.277344 68.753906 C 347.601562 75.265625 343.144531 81.21875 343.144531 87.660156 C 343.109375 89.890625 343.285156 90.691406 344.15625 92.539062 C 346.070312 96.648438 350.003906 99.710938 356.027344 101.730469 C 364.867188 104.726562 376.042969 104.867188 384.222656 102.078125 C 391.636719 99.539062 397.519531 94.59375 399.609375 89.089844 C 400.617188 86.511719 400.6875 82.648438 399.820312 79.929688 C 398.53125 75.855469 394.039062 70.773438 389.617188 68.367188 L 387.949219 67.429688 L 384.1875 68.089844 C 382.097656 68.4375 380.359375 68.785156 380.253906 68.890625 C 380.183594 68.960938 381.089844 69.378906 382.273438 69.832031 C 388.433594 72.027344 393.414062 75.925781 395.5 80.210938 C 396.441406 82.125 396.617188 82.890625 396.617188 84.980469 C 396.617188 87.105469 396.441406 87.835938 395.46875 89.855469 C 392.402344 96.019531 384.847656 100.476562 375.519531 101.558594 C 364.277344 102.84375 350.875 98.039062 347.878906 91.597656 C 343.980469 83.273438 354.738281 73.070312 374.300781 66.488281 C 378.582031 65.027344 384.328125 63.839844 391.949219 62.796875 C 396.128906 62.238281 409.914062 62.238281 415.273438 62.832031 C 425.335938 63.875 432.992188 65.269531 454.960938 69.972656 C 472.78125 73.800781 483.191406 75.683594 493.285156 76.9375 C 506.273438 78.574219 508.917969 78.710938 523.363281 78.710938 C 538.367188 78.710938 542.542969 78.398438 551.839844 76.585938 C 574.152344 72.234375 589.296875 61.542969 593.925781 46.847656 C 594.621094 44.617188 594.726562 43.503906 594.726562 39.359375 C 594.726562 34.9375 594.621094 34.242188 593.753906 31.699219 C 592.1875 27.273438 590.339844 24.453125 586.234375 20.34375 C 574.082031 8.226562 552.222656 1.015625 532.519531 2.621094 Z M 532.519531 2.621094 " fill-opacity="1" fill-rule="nonzero"/></g><path fill="#000000" d="M 48.328125 25.011719 C 44.429688 27.625 45.371094 32.707031 50.765625 38.105469 C 59.121094 46.464844 73.183594 52 89.789062 53.464844 C 103.46875 54.648438 118.785156 52.871094 152.867188 46.152344 C 161.535156 44.445312 170.515625 42.738281 172.8125 42.355469 C 186.144531 40.089844 197.25 39.289062 206.894531 39.882812 C 222.417969 40.824219 236.691406 44.546875 249.539062 50.992188 C 261.859375 57.226562 275.613281 67.777344 283.234375 76.867188 C 286.785156 81.148438 286.855469 81.253906 284.382812 79.339844 C 275.855469 72.6875 264.925781 67.742188 252.007812 64.609375 C 247.519531 63.527344 241.390625 62.519531 239.40625 62.519531 L 238.292969 62.519531 L 239.128906 63.109375 C 239.617188 63.421875 241.53125 64.816406 243.375 66.210938 C 246.441406 68.472656 247.066406 68.785156 249.992188 69.484375 C 251.765625 69.9375 255.28125 70.945312 257.789062 71.78125 C 273.800781 76.9375 284.699219 84.285156 293.15625 95.601562 C 294.828125 97.832031 296.5 99.921875 296.882812 100.304688 C 297.578125 100.929688 297.648438 100.929688 298.34375 100.304688 C 298.726562 99.921875 300.398438 97.832031 302.066406 95.601562 C 310.527344 84.285156 321.421875 76.9375 337.4375 71.78125 C 339.941406 70.945312 343.457031 69.9375 345.234375 69.484375 C 348.160156 68.785156 348.785156 68.472656 351.847656 66.210938 C 353.695312 64.816406 355.609375 63.421875 356.09375 63.109375 L 356.929688 62.519531 L 355.816406 62.519531 C 353.832031 62.519531 347.707031 63.527344 343.214844 64.609375 C 330.300781 67.742188 319.371094 72.6875 310.839844 79.339844 C 308.367188 81.253906 308.4375 81.148438 311.988281 76.867188 C 319.613281 67.777344 333.363281 57.226562 345.6875 50.992188 C 362.046875 42.773438 381.507812 38.835938 400.515625 39.882812 C 412.59375 40.507812 417.46875 41.238281 442.359375 46.152344 C 476.4375 52.871094 491.753906 54.648438 505.4375 53.464844 C 522.042969 52 536.105469 46.464844 544.460938 38.105469 C 547.488281 35.042969 549.296875 31.90625 549.296875 29.644531 C 549.296875 26.613281 547.035156 24.210938 544.214844 24.210938 C 542.128906 24.210938 541.046875 24.699219 540.246094 26.023438 C 539.378906 27.378906 539.550781 28.84375 540.664062 30.027344 C 541.570312 31 542.09375 30.757812 541.640625 29.574219 C 541.082031 28.144531 541.222656 27.066406 542.058594 26.507812 C 544.078125 25.082031 547.210938 26.824219 547.210938 29.398438 C 547.210938 31.699219 542.683594 36.992188 538.125 40.054688 C 532.796875 43.644531 524.269531 47.230469 517.097656 48.867188 C 510.621094 50.363281 506.0625 50.816406 497.429688 50.816406 C 482.425781 50.78125 470.101562 48.832031 435.8125 41.136719 C 425.613281 38.835938 419.453125 37.6875 411.96875 36.644531 C 407.058594 35.980469 404.867188 35.878906 393.691406 35.878906 C 382.308594 35.910156 380.5 35.980469 376.113281 36.679688 C 360.097656 39.183594 347.183594 44.164062 333.46875 53.046875 C 317.175781 63.597656 306.488281 74.566406 300.363281 87.070312 C 299.421875 88.949219 298.449219 91.109375 298.238281 91.839844 C 298.03125 92.574219 297.75 93.164062 297.613281 93.164062 C 297.472656 93.164062 297.195312 92.574219 296.984375 91.839844 C 296.777344 91.109375 295.800781 88.949219 294.863281 87.070312 C 288.734375 74.566406 278.046875 63.597656 261.757812 53.046875 C 248.042969 44.164062 235.125 39.183594 219.113281 36.679688 C 214.726562 35.980469 212.917969 35.910156 201.53125 35.878906 C 190.359375 35.878906 188.164062 35.980469 183.257812 36.644531 C 175.773438 37.6875 169.609375 38.835938 159.410156 41.136719 C 134.765625 46.671875 124.914062 48.519531 112.417969 50.015625 C 103.921875 51.027344 91.632812 51.128906 85.4375 50.226562 C 74.542969 48.625 64.480469 45 57.101562 40.054688 C 52.503906 36.957031 48.015625 31.699219 48.015625 29.363281 C 48.015625 26.824219 51.148438 25.082031 53.167969 26.507812 C 54.003906 27.066406 54.140625 28.144531 53.585938 29.574219 C 53.410156 30.0625 53.375 30.550781 53.550781 30.617188 C 54.003906 30.933594 55.289062 29.328125 55.5 28.214844 C 55.742188 26.925781 54.664062 25.046875 53.375 24.558594 C 51.808594 23.96875 49.617188 24.140625 48.328125 25.011719 Z M 48.328125 25.011719 " fill-opacity="1" fill-rule="nonzero"/></g></g></g></svg>